<svg width="128" height="68" viewBox="0 0 128 68" fill="none" xmlns="http://www.w3.org/2000/svg">
<path d="M15.725 36.27C16.1197 36.7633 16.613 37.417 17.205 38.231C17.8217 39.0203 18.4507 39.9083 19.092 40.895C19.7333 41.857 20.3623 42.8683 20.979 43.929C21.6203 44.9897 22.163 46.0133 22.607 47H18.685C18.1917 46.0627 17.649 45.113 17.057 44.151C16.4897 43.189 15.91 42.2763 15.318 41.413C14.726 40.525 14.134 39.6987 13.542 38.934C12.9747 38.1693 12.4567 37.5033 11.988 36.936C11.6673 36.9607 11.3343 36.973 10.989 36.973C10.6683 36.973 10.3353 36.973 9.99 36.973H6.771V47H3.182V21.729C4.19333 21.4823 5.31567 21.322 6.549 21.248C7.807 21.1493 8.954 21.1 9.99 21.1C13.5913 21.1 16.3293 21.7783 18.204 23.135C20.1033 24.4917 21.053 26.5143 21.053 29.203C21.053 30.905 20.5967 32.3603 19.684 33.569C18.796 34.7777 17.4763 35.678 15.725 36.27ZM10.286 24.245C8.75667 24.245 7.585 24.282 6.771 24.356V34.013H9.324C10.5573 34.013 11.6673 33.9513 12.654 33.828C13.6407 33.7047 14.467 33.4703 15.133 33.125C15.8237 32.7797 16.354 32.2987 16.724 31.682C17.094 31.0407 17.279 30.202 17.279 29.166C17.279 28.204 17.094 27.4023 16.724 26.761C16.354 26.1197 15.8483 25.614 15.207 25.244C14.5903 24.874 13.8503 24.615 12.987 24.467C12.1483 24.319 11.248 24.245 10.286 24.245ZM32.7415 44.521C33.5555 44.521 34.2709 44.5087 34.8875 44.484C35.5289 44.4347 36.0592 44.3607 36.4785 44.262V38.527C36.2319 38.4037 35.8249 38.305 35.2575 38.231C34.7149 38.1323 34.0489 38.083 33.2595 38.083C32.7415 38.083 32.1865 38.12 31.5945 38.194C31.0272 38.268 30.4969 38.4283 30.0035 38.675C29.5349 38.897 29.1402 39.2177 28.8195 39.637C28.4989 40.0317 28.3385 40.562 28.3385 41.228C28.3385 42.4613 28.7332 43.3247 29.5225 43.818C30.3119 44.2867 31.3849 44.521 32.7415 44.521ZM32.4455 27.279C33.8269 27.279 34.9862 27.464 35.9235 27.834C36.8855 28.1793 37.6502 28.685 38.2175 29.351C38.8095 29.9923 39.2289 30.7693 39.4755 31.682C39.7222 32.57 39.8455 33.5567 39.8455 34.642V46.667C39.5495 46.7163 39.1302 46.7903 38.5875 46.889C38.0695 46.963 37.4775 47.037 36.8115 47.111C36.1455 47.185 35.4179 47.2467 34.6285 47.296C33.8639 47.37 33.0992 47.407 32.3345 47.407C31.2492 47.407 30.2502 47.296 29.3375 47.074C28.4249 46.852 27.6355 46.5067 26.9695 46.038C26.3035 45.5447 25.7855 44.9033 25.4155 44.114C25.0455 43.3247 24.8605 42.375 24.8605 41.265C24.8605 40.2043 25.0702 39.2917 25.4895 38.527C25.9335 37.7623 26.5255 37.1457 27.2655 36.677C28.0055 36.2083 28.8689 35.863 29.8555 35.641C30.8422 35.419 31.8782 35.308 32.9635 35.308C33.3089 35.308 33.6665 35.3327 34.0365 35.382C34.4065 35.4067 34.7519 35.456 35.0725 35.53C35.4179 35.5793 35.7139 35.6287 35.9605 35.678C36.2072 35.7273 36.3799 35.7643 36.4785 35.789V34.827C36.4785 34.2597 36.4169 33.7047 36.2935 33.162C36.1702 32.5947 35.9482 32.1013 35.6275 31.682C35.3069 31.238 34.8629 30.8927 34.2955 30.646C33.7529 30.3747 33.0375 30.239 32.1495 30.239C31.0149 30.239 30.0159 30.3253 29.1525 30.498C28.3139 30.646 27.6849 30.8063 27.2655 30.979L26.8585 28.13C27.3025 27.9327 28.0425 27.7477 29.0785 27.575C30.1145 27.3777 31.2369 27.279 32.4455 27.279ZM45.5606 28.315C46.3499 28.1177 47.3859 27.908 48.6686 27.686C49.9759 27.464 51.4806 27.353 53.1826 27.353C54.4159 27.353 55.4519 27.5257 56.2906 27.871C57.1293 28.1917 57.8323 28.6727 58.3996 29.314C58.5723 29.1907 58.8436 29.018 59.2136 28.796C59.5836 28.574 60.0399 28.3643 60.5826 28.167C61.1253 27.945 61.7296 27.76 62.3956 27.612C63.0616 27.4393 63.7769 27.353 64.5416 27.353C66.0216 27.353 67.2303 27.575 68.1676 28.019C69.1049 28.4383 69.8326 29.0427 70.3506 29.832C70.8933 30.6213 71.2509 31.5587 71.4236 32.644C71.6209 33.7293 71.7196 34.9133 71.7196 36.196V47H68.2786V36.936C68.2786 35.8013 68.2169 34.827 68.0936 34.013C67.9949 33.199 67.7853 32.5207 67.4646 31.978C67.1686 31.4353 66.7493 31.0407 66.2066 30.794C65.6886 30.5227 65.0103 30.387 64.1716 30.387C63.0123 30.387 62.0503 30.5473 61.2856 30.868C60.5456 31.164 60.0399 31.4353 59.7686 31.682C59.9659 32.3233 60.1139 33.0263 60.2126 33.791C60.3113 34.5557 60.3606 35.3573 60.3606 36.196V47H56.9196V36.936C56.9196 35.8013 56.8579 34.827 56.7346 34.013C56.6113 33.199 56.3893 32.5207 56.0686 31.978C55.7726 31.4353 55.3533 31.0407 54.8106 30.794C54.2926 30.5227 53.6266 30.387 52.8126 30.387C52.4673 30.387 52.0973 30.3993 51.7026 30.424C51.3079 30.4487 50.9256 30.4857 50.5556 30.535C50.2103 30.5597 49.8896 30.5967 49.5936 30.646C49.2976 30.6953 49.1003 30.7323 49.0016 30.757V47H45.5606V28.315ZM83.9417 44.521C84.7557 44.521 85.4711 44.5087 86.0877 44.484C86.7291 44.4347 87.2594 44.3607 87.6787 44.262V38.527C87.4321 38.4037 87.0251 38.305 86.4577 38.231C85.9151 38.1323 85.2491 38.083 84.4597 38.083C83.9417 38.083 83.3867 38.12 82.7947 38.194C82.2274 38.268 81.6971 38.4283 81.2037 38.675C80.7351 38.897 80.3404 39.2177 80.0197 39.637C79.6991 40.0317 79.5387 40.562 79.5387 41.228C79.5387 42.4613 79.9334 43.3247 80.7227 43.818C81.5121 44.2867 82.5851 44.521 83.9417 44.521ZM83.6457 27.279C85.0271 27.279 86.1864 27.464 87.1237 27.834C88.0857 28.1793 88.8504 28.685 89.4177 29.351C90.0097 29.9923 90.4291 30.7693 90.6757 31.682C90.9224 32.57 91.0457 33.5567 91.0457 34.642V46.667C90.7497 46.7163 90.3304 46.7903 89.7877 46.889C89.2697 46.963 88.6777 47.037 88.0117 47.111C87.3457 47.185 86.6181 47.2467 85.8287 47.296C85.0641 47.37 84.2994 47.407 83.5347 47.407C82.4494 47.407 81.4504 47.296 80.5377 47.074C79.6251 46.852 78.8357 46.5067 78.1697 46.038C77.5037 45.5447 76.9857 44.9033 76.6157 44.114C76.2457 43.3247 76.0607 42.375 76.0607 41.265C76.0607 40.2043 76.2704 39.2917 76.6897 38.527C77.1337 37.7623 77.7257 37.1457 78.4657 36.677C79.2057 36.2083 80.0691 35.863 81.0557 35.641C82.0424 35.419 83.0784 35.308 84.1637 35.308C84.5091 35.308 84.8667 35.3327 85.2367 35.382C85.6067 35.4067 85.9521 35.456 86.2727 35.53C86.6181 35.5793 86.9141 35.6287 87.1607 35.678C87.4074 35.7273 87.5801 35.7643 87.6787 35.789V34.827C87.6787 34.2597 87.6171 33.7047 87.4937 33.162C87.3704 32.5947 87.1484 32.1013 86.8277 31.682C86.5071 31.238 86.0631 30.8927 85.4957 30.646C84.9531 30.3747 84.2377 30.239 83.3497 30.239C82.2151 30.239 81.2161 30.3253 80.3527 30.498C79.5141 30.646 78.8851 30.8063 78.4657 30.979L78.0587 28.13C78.5027 27.9327 79.2427 27.7477 80.2787 27.575C81.3147 27.3777 82.4371 27.279 83.6457 27.279Z" fill="black"/>
<path d="M94.4 42.6C95.16 40.84 96.2 38.8 97.52 36.48C98.84 34.12 100.32 31.7 101.96 29.22C103.64 26.74 105.42 24.3 107.3 21.9C109.22 19.5 111.14 17.34 113.06 15.42H118.4V41.82H123.32V46.38H118.4V57H113V46.38H94.4V42.6ZM113 22.02C111.8 23.3 110.58 24.74 109.34 26.34C108.14 27.9 106.96 29.54 105.8 31.26C104.64 32.98 103.54 34.74 102.5 36.54C101.5 38.34 100.6 40.1 99.8 41.82H113V22.02Z" fill="#FDFDFD"/>
<path d="M94.4 42.6L93.4819 42.2036L93.4 42.3933V42.6H94.4ZM97.52 36.48L98.3892 36.9745L98.3928 36.9682L97.52 36.48ZM101.96 29.22L101.132 28.6591L101.126 28.6684L101.96 29.22ZM107.3 21.9L106.519 21.2753L106.513 21.2833L107.3 21.9ZM113.06 15.42V14.42H112.646L112.353 14.7129L113.06 15.42ZM118.4 15.42H119.4V14.42H118.4V15.42ZM118.4 41.82H117.4V42.82H118.4V41.82ZM123.32 41.82H124.32V40.82H123.32V41.82ZM123.32 46.38V47.38H124.32V46.38H123.32ZM118.4 46.38V45.38H117.4V46.38H118.4ZM118.4 57V58H119.4V57H118.4ZM113 57H112V58H113V57ZM113 46.38H114V45.38H113V46.38ZM94.4 46.38H93.4V47.38H94.4V46.38ZM113 22.02H114V19.4912L112.27 21.3361L113 22.02ZM109.34 26.34L108.55 25.7274L108.547 25.7303L109.34 26.34ZM102.5 36.54L101.634 36.0397L101.63 36.047L101.626 36.0544L102.5 36.54ZM99.8 41.82L98.8933 41.3983L98.232 42.82H99.8V41.82ZM113 41.82V42.82H114V41.82H113ZM95.3181 42.9964C96.0592 41.2801 97.0808 39.274 98.3892 36.9745L96.6508 35.9855C95.3192 38.326 94.2608 40.3999 93.4819 42.2036L95.3181 42.9964ZM98.3928 36.9682C99.6995 34.6318 101.166 32.2329 102.794 29.7716L101.126 28.6684C99.4736 31.1671 97.9805 33.6082 96.6472 35.9918L98.3928 36.9682ZM102.788 29.7808C104.455 27.3202 106.221 24.8988 108.087 22.5167L106.513 21.2833C104.619 23.7011 102.825 26.1597 101.132 28.6592L102.788 29.7808ZM108.081 22.5247C109.981 20.1498 111.876 18.0179 113.767 16.1271L112.353 14.7129C110.404 16.6621 108.459 18.8502 106.519 21.2753L108.081 22.5247ZM113.06 16.42H118.4V14.42H113.06V16.42ZM117.4 15.42V41.82H119.4V15.42H117.4ZM118.4 42.82H123.32V40.82H118.4V42.82ZM122.32 41.82V46.38H124.32V41.82H122.32ZM123.32 45.38H118.4V47.38H123.32V45.38ZM117.4 46.38V57H119.4V46.38H117.4ZM118.4 56H113V58H118.4V56ZM114 57V46.38H112V57H114ZM113 45.38H94.4V47.38H113V45.38ZM95.4 46.38V42.6H93.4V46.38H95.4ZM112.27 21.3361C111.046 22.642 109.806 24.1064 108.55 25.7274L110.13 26.9526C111.354 25.3736 112.554 23.958 113.73 22.7039L112.27 21.3361ZM108.547 25.7303C107.334 27.3076 106.142 28.9645 104.971 30.7009L106.629 31.8191C107.778 30.1154 108.946 28.4924 110.133 26.9497L108.547 25.7303ZM104.971 30.7009C103.798 32.4401 102.686 34.2197 101.634 36.0397L103.366 37.0403C104.394 35.2603 105.482 33.5199 106.629 31.8191L104.971 30.7009ZM101.626 36.0544C100.615 37.8735 99.7042 39.6548 98.8933 41.3983L100.707 42.2417C101.496 40.5452 102.385 38.8065 103.374 37.0256L101.626 36.0544ZM99.8 42.82H113V40.82H99.8V42.82ZM114 41.82V22.02H112V41.82H114Z" fill="#A40000"/>
<path d="M64.146 62.272C64.026 61.984 63.864 61.618 63.66 61.174C63.468 60.73 63.258 60.25 63.03 59.734C62.802 59.218 62.556 58.69 62.292 58.15C62.04 57.598 61.8 57.082 61.572 56.602C61.344 56.11 61.128 55.672 60.924 55.288C60.732 54.904 60.576 54.61 60.456 54.406C60.324 55.822 60.216 57.358 60.132 59.014C60.048 60.658 59.976 62.32 59.916 64H58.206C58.254 62.92 58.308 61.834 58.368 60.742C58.428 59.638 58.494 58.558 58.566 57.502C58.65 56.434 58.734 55.396 58.818 54.388C58.914 53.38 59.016 52.426 59.124 51.526H60.654C60.978 52.054 61.326 52.678 61.698 53.398C62.07 54.118 62.442 54.874 62.814 55.666C63.186 56.446 63.546 57.232 63.894 58.024C64.242 58.804 64.56 59.518 64.848 60.166C65.136 59.518 65.454 58.804 65.802 58.024C66.15 57.232 66.51 56.446 66.882 55.666C67.254 54.874 67.626 54.118 67.998 53.398C68.37 52.678 68.718 52.054 69.042 51.526H70.572C70.98 55.546 71.286 59.704 71.49 64H69.78C69.72 62.32 69.648 60.658 69.564 59.014C69.48 57.358 69.372 55.822 69.24 54.406C69.12 54.61 68.958 54.904 68.754 55.288C68.562 55.672 68.352 56.11 68.124 56.602C67.896 57.082 67.65 57.598 67.386 58.15C67.134 58.69 66.894 59.218 66.666 59.734C66.438 60.25 66.222 60.73 66.018 61.174C65.826 61.618 65.67 61.984 65.55 62.272H64.146ZM82.3817 59.32C82.3817 60.064 82.2737 60.736 82.0577 61.336C81.8417 61.936 81.5357 62.452 81.1397 62.884C80.7557 63.316 80.2937 63.652 79.7537 63.892C79.2137 64.12 78.6257 64.234 77.9897 64.234C77.3537 64.234 76.7657 64.12 76.2257 63.892C75.6857 63.652 75.2177 63.316 74.8217 62.884C74.4377 62.452 74.1377 61.936 73.9217 61.336C73.7057 60.736 73.5977 60.064 73.5977 59.32C73.5977 58.588 73.7057 57.922 73.9217 57.322C74.1377 56.71 74.4377 56.188 74.8217 55.756C75.2177 55.324 75.6857 54.994 76.2257 54.766C76.7657 54.526 77.3537 54.406 77.9897 54.406C78.6257 54.406 79.2137 54.526 79.7537 54.766C80.2937 54.994 80.7557 55.324 81.1397 55.756C81.5357 56.188 81.8417 56.71 82.0577 57.322C82.2737 57.922 82.3817 58.588 82.3817 59.32ZM80.6357 59.32C80.6357 58.264 80.3957 57.43 79.9157 56.818C79.4477 56.194 78.8057 55.882 77.9897 55.882C77.1737 55.882 76.5257 56.194 76.0457 56.818C75.5777 57.43 75.3437 58.264 75.3437 59.32C75.3437 60.376 75.5777 61.216 76.0457 61.84C76.5257 62.452 77.1737 62.758 77.9897 62.758C78.8057 62.758 79.4477 62.452 79.9157 61.84C80.3957 61.216 80.6357 60.376 80.6357 59.32ZM90.7849 56.62C90.5809 56.452 90.2869 56.29 89.9029 56.134C89.5189 55.978 89.0989 55.9 88.6429 55.9C88.1629 55.9 87.7489 55.99 87.4009 56.17C87.0649 56.338 86.7889 56.578 86.5729 56.89C86.3569 57.19 86.2009 57.55 86.1049 57.97C86.0089 58.39 85.9609 58.84 85.9609 59.32C85.9609 60.412 86.2309 61.258 86.7709 61.858C87.3109 62.446 88.0309 62.74 88.9309 62.74C89.3869 62.74 89.7649 62.722 90.0649 62.686C90.3769 62.638 90.6169 62.59 90.7849 62.542V56.62ZM90.7849 50.32L92.4589 50.032V63.73C92.0749 63.838 91.5829 63.946 90.9829 64.054C90.3829 64.162 89.6929 64.216 88.9129 64.216C88.1929 64.216 87.5449 64.102 86.9689 63.874C86.3929 63.646 85.9009 63.322 85.4929 62.902C85.0849 62.482 84.7669 61.972 84.5389 61.372C84.3229 60.76 84.2149 60.076 84.2149 59.32C84.2149 58.6 84.3049 57.94 84.4849 57.34C84.6769 56.74 84.9529 56.224 85.3129 55.792C85.6729 55.36 86.1109 55.024 86.6269 54.784C87.1549 54.544 87.7549 54.424 88.4269 54.424C88.9669 54.424 89.4409 54.496 89.8489 54.64C90.2689 54.784 90.5809 54.922 90.7849 55.054V50.32ZM94.8145 59.338C94.8145 58.51 94.9345 57.79 95.1745 57.178C95.4145 56.554 95.7325 56.038 96.1285 55.63C96.5245 55.222 96.9805 54.916 97.4965 54.712C98.0125 54.508 98.5405 54.406 99.0805 54.406C100.34 54.406 101.306 54.802 101.978 55.594C102.65 56.374 102.986 57.568 102.986 59.176C102.986 59.248 102.986 59.344 102.986 59.464C102.986 59.572 102.98 59.674 102.968 59.77H96.5605C96.6325 60.742 96.9145 61.48 97.4065 61.984C97.8985 62.488 98.6665 62.74 99.7105 62.74C100.298 62.74 100.79 62.692 101.186 62.596C101.594 62.488 101.9 62.386 102.104 62.29L102.338 63.694C102.134 63.802 101.774 63.916 101.258 64.036C100.754 64.156 100.178 64.216 99.5305 64.216C98.7145 64.216 98.0065 64.096 97.4065 63.856C96.8185 63.604 96.3325 63.262 95.9485 62.83C95.5645 62.398 95.2765 61.888 95.0845 61.3C94.9045 60.7 94.8145 60.046 94.8145 59.338ZM101.24 58.42C101.252 57.664 101.06 57.046 100.664 56.566C100.28 56.074 99.7465 55.828 99.0625 55.828C98.6785 55.828 98.3365 55.906 98.0365 56.062C97.7485 56.206 97.5025 56.398 97.2985 56.638C97.0945 56.878 96.9325 57.154 96.8125 57.466C96.7045 57.778 96.6325 58.096 96.5965 58.42H101.24ZM108.199 64.18C107.167 64.156 106.435 63.934 106.003 63.514C105.571 63.094 105.355 62.44 105.355 61.552V50.32L107.029 50.032V61.282C107.029 61.558 107.053 61.786 107.101 61.966C107.149 62.146 107.227 62.29 107.335 62.398C107.443 62.506 107.587 62.59 107.767 62.65C107.947 62.698 108.169 62.74 108.433 62.776L108.199 64.18Z" fill="black"/>
</svg>
