<svg xmlns="http://www.w3.org/2000/svg" viewBox="0 0 900 900"><defs><style>.cls-1{fill:#333232;stroke:#231f20;}.cls-1,.cls-3{stroke-miterlimit:10;}.cls-2{fill:#635d5d;}.cls-3{fill:none;stroke:#d3a62a;}</style></defs><title>Artboard 1</title><g id="background"><rect class="cls-1" y="-2.12" width="902.67" height="900.23" transform="translate(902.67 896) rotate(-180)"/></g><g id="color"><polyline class="cls-2" points="199.67 64.25 199.67 61.73 199.67 -2.62 -1.33 -2.62 -1.33 211.8 39.32 211.8"/><polyline class="cls-2" points="202.33 832.86 202.33 835.42 202.33 900.62 -1.33 900.62 -1.33 683.35 39.85 683.35"/><polyline class="cls-2" points="700.48 830.79 700.48 833.32 700.48 897.62 901.33 897.62 901.33 683.35 860.71 683.35"/><polyline class="cls-2" points="704.84 62.76 704.84 60.29 704.84 -2.62 901.33 -2.62 901.33 207 861.59 207"/></g><g id="main"><path class="cls-2" d="M202.33,897.62V711.06s.26-27.86-27.86-27.86H1.33"/><path class="cls-2" d="M202.33-2.62V183.94s.26,27.86-27.86,27.86H1.33"/><path class="cls-2" d="M700.48,897.62V711.2s-.26-27.85,27.85-27.85h173"/><path class="cls-2" d="M704.83-2.62V179.76S704.58,207,732.08,207H901.33"/><line class="cls-3" x1="196.5" y1="633.2" x2="-1.33" y2="633.2"/><line class="cls-3" x1="902" y1="261.8" x2="704.17" y2="261.8"/><line class="cls-3" x1="252.33" y1="-2.62" x2="252.33" y2="195.22"/><line class="cls-3" x1="650.48" y1="699.78" x2="650.48" y2="897.62"/></g><g id="tri"><rect class="cls-2" y="-2.62" width="901.33" height="214.42" transform="translate(901.33 209.19) rotate(-180)"/></g></svg>