<svg xmlns="http://www.w3.org/2000/svg" viewBox="0 0 904.5 903.23"><defs><style>.cls-1{fill:#333232;stroke:#231f20;}.cls-1,.cls-3{stroke-miterlimit:10;}.cls-2{fill:#635d5d;}.cls-3{fill:none;stroke:#d3a62a;}</style></defs><title>traffic-phase</title><g id="background"><rect class="cls-1" x="0.5" y="2.5" width="902.67" height="900.23"/></g><g id="color"><polyline class="cls-2" points="703.5 836.36 703.5 838.89 703.5 903.23 904.5 903.23 904.5 688.81 863.85 688.81"/><polyline class="cls-2" points="700.83 67.76 700.83 65.2 700.83 0 904.5 0 904.5 217.26 863.31 217.26"/><polyline class="cls-2" points="202.69 69.82 202.69 67.3 202.69 3 1.83 3 1.83 217.26 42.45 217.26"/><polyline class="cls-2" points="198.33 837.86 198.33 840.33 198.33 903.23 1.83 903.23 1.83 693.62 41.57 693.62"/></g><g id="main"><path class="cls-2" d="M699,.38V186.94s-.26,27.86,27.87,27.86H900" transform="translate(1.83 2.62)"/><path class="cls-2" d="M699,900.62V714.06s-.26-27.86,27.87-27.86H900" transform="translate(1.83 2.62)"/><path class="cls-2" d="M200.85.38V186.8s.26,27.85-27.84,27.85H0" transform="translate(1.83 2.62)"/><path class="cls-2" d="M196.5,900.62V718.24S196.75,691,169.26,691H0" transform="translate(1.83 2.62)"/><line class="cls-3" x1="706.67" y1="267.42" x2="904.5" y2="267.42"/><line class="cls-3" x1="1.17" y1="638.81" x2="199" y2="638.81"/><line class="cls-3" x1="650.83" y1="903.23" x2="650.83" y2="705.4"/><line class="cls-3" x1="252.69" y1="200.83" x2="252.69" y2="3"/></g></svg>