<svg xmlns="http://www.w3.org/2000/svg" viewBox="0 0 904.5 901.23"><defs><style>.cls-1{fill:#333232;}.cls-1,.cls-3{stroke:#231f20;stroke-miterlimit:10;}.cls-2,.cls-3{fill:#635d5d;}.cls-3{stroke-width:6px;}</style></defs><title>Traffic phase</title><g id="background"><rect class="cls-1" x="0.5" y="0.5" width="902.67" height="900.23"/></g><g id="color"><polyline class="cls-2" points="639.13 812.95 639.13 816.28 639.13 901.23 904.5 901.23 904.5 618.15 850.83 618.15"/><polyline class="cls-2" points="639.13 89.28 639.13 85.95 639.13 1 904.5 1 904.5 284.08 850.83 284.08"/><polyline class="cls-2" points="267.2 89.28 267.2 85.95 267.2 1 1.83 1 1.83 284.08 55.5 284.08"/><polyline class="cls-2" points="267.2 812.95 267.2 816.28 267.2 901.23 1.83 901.23 1.83 618.15 55.5 618.15"/></g><g id="main"><path class="cls-3" d="M634.63.38v246.3s-.34,36.79,36.79,36.79H900" transform="translate(1.83 0.62)"/><path class="cls-3" d="M634.63,900.62V654.32s-.34-36.79,36.79-36.79H900" transform="translate(1.83 0.62)"/><path class="cls-3" d="M265.37.38v246.3s.34,36.79-36.79,36.79H0" transform="translate(1.83 0.62)"/><path class="cls-3" d="M265.37,900.62V654.32s.34-36.79-36.79-36.79H0" transform="translate(1.83 0.62)"/></g></svg>