<svg xmlns="http://www.w3.org/2000/svg" viewBox="0 0 900 900"><defs><style>.cls-1{fill:#333232;stroke:#231f20;}.cls-1,.cls-3{stroke-miterlimit:10;}.cls-2{fill:#635d5d;}.cls-3{fill:none;stroke:#d3a62a;}</style></defs><title>Artboard 1</title><g id="background"><rect class="cls-1" x="-1.33" y="-0.12" width="902.67" height="900.23"/></g><g id="color"><polyline class="cls-2" points="701.67 833.75 701.67 836.27 701.67 900.62 902.67 900.62 902.67 686.2 862.02 686.2"/><polyline class="cls-2" points="699 65.14 699 62.58 699 -2.62 902.67 -2.62 902.67 214.65 861.48 214.65"/><polyline class="cls-2" points="200.85 67.2 200.85 64.68 200.85 0.39 0 0.39 0 214.65 40.62 214.65"/><polyline class="cls-2" points="196.5 835.24 196.5 837.71 196.5 900.62 0 900.62 0 691 39.74 691"/></g><g id="main"><path class="cls-2" d="M699,.38V186.94s-.26,27.86,27.87,27.86H900"/><path class="cls-2" d="M699,900.62V714.06s-.26-27.86,27.87-27.86H900"/><path class="cls-2" d="M200.85.38V186.8s.26,27.85-27.84,27.85H0"/><path class="cls-2" d="M196.5,900.62V718.24S196.75,691,169.26,691H0"/><line class="cls-3" x1="704.83" y1="264.8" x2="902.67" y2="264.8"/><line class="cls-3" x1="-0.67" y1="636.2" x2="197.17" y2="636.2"/><line class="cls-3" x1="649" y1="900.62" x2="649" y2="702.78"/><line class="cls-3" x1="250.85" y1="198.22" x2="250.85" y2="0.38"/></g></svg>