<svg xmlns="http://www.w3.org/2000/svg" viewBox="0 0 900 900"><defs><style>.cls-1{fill:#333232;stroke:#231f20;}.cls-1,.cls-3{stroke-miterlimit:10;}.cls-2{fill:#635d5d;}.cls-3{fill:none;stroke:#d3a62a;}</style></defs><title>Artboard 1</title><g id="background"><rect class="cls-1" x="-1.67" y="-1.78" width="902.67" height="900.23" transform="translate(898 -1.33) rotate(90)"/></g><g id="color"><polyline class="cls-2" points="65.92 700 63.4 700 -0.95 700 -0.95 901 213.47 901 213.47 860.35"/><polyline class="cls-2" points="834.53 697.33 837.09 697.33 902.28 697.33 902.28 901 685.02 901 685.02 859.81"/><polyline class="cls-2" points="832.46 199.19 834.99 199.19 899.28 199.19 899.28 -1.67 685.02 -1.67 685.02 38.95"/><polyline class="cls-2" points="64.42 194.83 61.95 194.83 -0.95 194.83 -0.95 -1.67 208.67 -1.67 208.67 38.07"/></g><g id="main"><path class="cls-2" d="M899.28,697.33H712.73s-27.86-.25-27.86,27.87V898.33"/><path class="cls-2" d="M-.95,697.33H185.6s27.87-.25,27.87,27.87V898.33"/><path class="cls-2" d="M899.28,199.19H712.87S685,199.45,685,171.34v-173"/><path class="cls-2" d="M-.95,194.83H181.42s27.25.25,27.25-27.24V-1.67"/><line class="cls-3" x1="634.87" y1="703.17" x2="634.87" y2="901"/><line class="cls-3" x1="263.47" y1="-2.33" x2="263.47" y2="195.5"/><line class="cls-3" x1="-0.95" y1="647.33" x2="196.88" y2="647.33"/><line class="cls-3" x1="701.45" y1="249.19" x2="899.28" y2="249.19"/></g><g id="tri"><rect class="cls-2" x="-344.41" y="341.79" width="901.33" height="214.42" transform="translate(555.26 342.74) rotate(90)"/></g></svg>